<svg width="192" height="50" viewBox="0 0 192 50" fill="none" xmlns="http://www.w3.org/2000/svg">
<path d="M0.0703531 35.1023C-0.0842901 32.8682 0.0160078 30.6417 0.371246 28.4267C0.725086 26.2104 1.32834 24.0527 2.17821 21.9525C3.04753 19.8215 4.14262 17.7926 5.46475 15.8657C6.78688 13.9387 8.30827 12.1545 10.0289 10.5117C11.7606 8.85357 13.6539 7.36887 15.713 6.06127C17.7721 4.75367 19.9539 3.64742 22.2582 2.74387C23.4118 2.29273 24.589 1.89508 25.7871 1.55355C26.9853 1.21073 28.1988 0.923963 29.4289 0.693308C30.6577 0.462653 31.8976 0.290606 33.1459 0.174607C34.3956 0.0586077 35.6481 0 36.9033 0C38.1586 0 39.4097 0.0586077 40.6594 0.174607C41.9077 0.290606 43.1476 0.462653 44.3778 0.693308C45.6067 0.923963 46.8215 1.21073 48.0196 1.55355C49.2177 1.89508 50.3936 2.29273 51.5472 2.74387C53.8529 3.64748 56.0346 4.75367 58.0951 6.06127C60.1556 7.37015 62.0518 8.85357 63.7835 10.5117C65.4999 12.1557 67.0171 13.9412 68.3364 15.867C69.6543 17.7939 70.7466 19.8228 71.6118 21.9525C72.463 24.0527 73.0649 26.2104 73.4188 28.4267C73.7726 30.6429 73.8702 32.8682 73.7114 35.1023C73.5525 32.9192 73.1792 30.7666 72.5898 28.6459C72.0005 26.5252 71.2064 24.4707 70.2075 22.4826C69.2184 20.5276 68.0397 18.6758 66.6688 16.9247C65.298 15.1749 63.7598 13.5576 62.0546 12.0728C61.6352 11.707 61.2075 11.3502 60.7701 11.0036C60.3326 10.6569 59.8868 10.3192 59.4312 9.99162C58.9757 9.66403 58.5131 9.34674 58.0408 9.03835C57.5699 8.73123 57.0907 8.43423 56.6031 8.14753C56.1169 7.86204 55.6223 7.58551 55.1207 7.32043C54.6192 7.05536 54.1107 6.80173 53.5966 6.55828C53.0811 6.31611 52.5615 6.08417 52.0349 5.86369C51.5083 5.64449 50.9761 5.43546 50.4383 5.23795C49.9005 5.04165 49.3586 4.85559 48.8111 4.68227C48.2636 4.50894 47.7119 4.34834 47.156 4.19927C46.6014 4.04891 46.0414 3.9125 45.4785 3.7876C44.9157 3.66271 44.3501 3.54927 43.7816 3.44984C43.2132 3.34914 42.642 3.26123 42.0694 3.18605C41.4954 3.11087 40.9215 3.04714 40.3447 2.99743C39.7679 2.94643 39.1911 2.90824 38.6129 2.88399C38.0334 2.85852 37.4552 2.84573 36.8756 2.84573C36.2975 2.84573 35.7179 2.85846 35.1397 2.88399C34.5616 2.90817 33.9834 2.94643 33.4066 2.99743C32.8312 3.04714 32.2559 3.11087 31.6832 3.18605C31.1092 3.26123 30.5381 3.3492 29.9696 3.44984C29.4012 3.54927 28.8356 3.66265 28.2728 3.7876C27.7099 3.9125 27.1512 4.04884 26.5954 4.19927C26.0395 4.34841 25.4878 4.50894 24.9417 4.68227C24.3942 4.85559 23.8522 5.04165 23.3145 5.23795C22.7767 5.43546 22.2445 5.64449 21.7179 5.86369C21.1913 6.08417 20.6702 6.31611 20.1561 6.55828C19.6407 6.80173 19.1335 7.05529 18.632 7.32043C18.1305 7.58557 17.6359 7.8621 17.1483 8.14753C16.662 8.43429 16.1828 8.73123 15.7105 9.03835C15.2396 9.34674 14.7757 9.66409 14.3201 9.99162C13.8659 10.3191 13.4187 10.6569 12.9813 11.0036C12.5439 11.3502 12.1161 11.707 11.6968 12.0728C9.9971 13.5589 8.46459 15.1774 7.09784 16.9272C5.72976 18.6783 4.55388 20.5301 3.56748 22.4826C2.56996 24.4707 1.77723 26.5251 1.18929 28.6458C0.601147 30.7666 0.227794 32.9192 0.0703531 35.1023Z" fill="#584BD4"/>
<path d="M73.0176 40.6406C73.0176 40.6406 72.9292 40.4467 72.7805 40.2548V38.2C72.7805 38.2 72.707 37.9328 72.5282 37.8161C72.5282 37.8161 72.1574 35.1083 71.5494 33.0683C71.5494 33.0683 71.1936 31.2186 68.2441 30.6427H57.6711C57.6711 30.6427 57.5243 30.6427 57.3756 30.7009C57.434 30.5541 57.5827 30.4507 57.7464 30.4507L65.8554 30.2587C65.782 29.7262 65.3811 29.5474 64.8484 29.5474H56.442C56.1145 29.5474 55.7888 29.5776 55.4783 29.666L40.6363 34.6508L54.5879 32.0333L54.6181 33.6009L41.0354 37.0013L54.6463 35.3153L54.6765 36.6325L40.7248 39.2933L54.7065 38.6874L54.7367 40.0478L40.977 41.7057L54.78 42.37L54.8101 43.8641L41.0655 44.2781L55.8623 46.2295C55.8623 46.2295 55.7155 43.3899 56.8412 42.7558C56.8412 42.4152 56.8412 41.926 56.8412 41.3501C56.8863 41.3651 56.9447 41.3802 57.0049 41.3802V41.9861C57.0049 41.9861 57.0049 42.0746 57.0934 42.1047V43.0211C57.0934 43.0211 55.9809 43.5536 56.1899 46.6153C56.1899 46.6153 56.6341 46.7188 56.8261 46.747C56.7979 46.2897 56.7979 45.6536 56.7979 45.6536C56.8863 44.1746 57.2421 43.8189 57.2421 43.8189C57.7617 43.0361 58.5917 43.3165 58.5917 43.3165C58.1023 43.3466 57.6281 43.7456 57.4793 43.9676C56.9316 44.7805 56.9749 46.0376 57.0501 46.747C57.0632 46.9107 57.1385 47.1628 57.227 47.4131L48.5985 46.5268L58.3545 49.054L59.5705 49.0257H59.5987C59.5987 49.0257 60.4439 49.0107 60.7111 47.9005L66.983 47.8121C66.983 47.8121 67.4874 48.6119 68.1538 48.5967H69.3999C69.3999 48.5967 69.9345 48.5516 70.3636 47.7969L71.8318 47.6803C71.8318 47.6803 72.6017 47.605 72.6619 47.1327V42.6954C72.6769 42.6954 72.9875 42.7406 72.9875 42.2513C72.9875 42.208 72.9875 40.6556 72.9875 40.6556L73.0176 40.6406ZM71.1053 33.3486C71.1053 33.3486 71.5345 35.0197 71.8168 37.816C71.8168 37.816 65.0254 38.0663 62.6988 37.9195C62.6988 37.9195 62.52 34.7694 62.3713 33.422L71.1052 33.3637V33.3486H71.1053ZM71.461 40.3433L65.2343 40.4768L64.3289 39.8559L65.3077 40.093L71.4761 40.0046L71.7716 39.8559L71.461 40.3433ZM71.6247 41.0828L71.3122 41.5721L65.5599 41.7339L64.7732 41.143L65.6785 41.3932L71.3274 41.2314L71.6247 41.0828ZM63.5873 42.6804L63.3501 42.5468C63.2767 42.5036 63.2315 42.4302 63.2315 42.3549L63.1882 41.1862C63.1882 41.1128 63.2616 41.0244 63.32 41.0696L63.5289 41.2164C63.5289 41.2465 63.5872 42.6954 63.5872 42.6954V42.6804H63.5873ZM61.0669 31.7962C61.0669 31.7962 61.289 31.766 61.3342 31.958V32.6091C61.3342 32.6091 61.1854 32.8612 60.8749 32.8161L58.9907 32.7277L61.082 32.5357V32.0614L58.3244 32.0032L61.0669 31.8112V31.7962ZM58.8138 47.4432C58.7102 47.59 58.5766 47.6804 58.443 47.6804C58.027 47.6935 57.6712 47.0293 57.628 46.1862C57.5828 45.3431 57.8802 44.6337 58.2943 44.6186C58.4882 44.6186 58.6651 44.7503 58.8138 45.0025C58.7837 45.0025 58.7536 45.0025 58.7254 45.0025C58.3978 45.0175 58.1606 45.5801 58.1908 46.2595C58.2209 46.9106 58.5014 47.4431 58.8138 47.4582V47.4432ZM60.1634 43.7455C59.4801 42.1328 57.628 42.4734 57.628 42.4734V41.986C60.1031 41.7791 60.1916 43.8189 60.1634 43.7455ZM57.3456 40.8626L60.6679 40.6406V39.5905L56.9446 38.659L61.304 39.3684V41.0696L57.3305 40.8626H57.3456ZM58.3244 36.8243C57.7315 36.7358 57.7616 35.9511 57.7616 35.9511V33.5255L61.5563 33.4521L61.6448 37.7708L58.3244 36.8243ZM62.0758 45.3431C61.9873 45.3431 61.912 45.2697 61.912 45.1794V44.3081C61.912 44.2196 61.9873 44.1444 62.0758 44.1444H64.0917C65.144 44.1895 65.1007 45.328 65.1007 45.328H62.0758V45.3431ZM71.2088 42.6804L65.8706 42.9024L65.0405 42.3266L65.9459 42.5769L71.254 42.4L71.5495 42.2513L71.2239 42.6804H71.2088ZM72.4831 44.9291C72.4831 45.0025 72.4248 45.0627 72.3513 45.0627H71.5947C71.5947 44.0127 72.261 43.9223 72.261 43.9223L72.5132 43.864V44.914L72.4831 44.9291ZM72.6468 42.2664C72.6468 42.2664 72.6318 42.4584 72.2459 42.4884V41.158C72.2459 41.0978 72.276 41.0244 72.3362 40.9943L72.5131 40.8757C72.5733 40.8475 72.6467 40.8757 72.6467 40.951V42.2664H72.6468ZM41.8523 25.5693H24.6669C24.3864 25.5693 24.1643 25.7913 24.1643 26.0717V29.8296C21.9395 30.2436 20.0572 30.6727 18.6191 31.0114V30.7009H14.6587C14.4083 30.7009 14.1994 30.9078 14.1994 31.16V31.8845C13.8888 32.2402 13.5914 32.6824 13.5914 32.6824L12.4206 35.0798C11.9161 36.4403 10.4629 37.3267 10.4629 37.3267L10.0037 37.5054V35.729H7.26115C7.00893 35.729 6.80189 35.9359 6.80189 36.1881V38.7172L2.60437 40.3148V37.6973C2.60437 37.4301 2.73799 37.193 2.96204 37.0462L5.89659 35.1682C6.01519 35.0948 6.14881 35.0496 6.29755 35.0496H10.0039V32.6541C10.0039 32.3869 10.1375 32.1517 10.3597 32.003L13.2961 30.125C13.4147 30.0515 13.5483 30.0064 13.6952 30.0064H18.6193V28.2018C18.6193 27.9214 18.7661 27.6542 19.0032 27.5074L23.1707 24.9482C23.3043 24.8747 23.4512 24.8296 23.5999 24.8296H42.2968C42.7561 24.8296 43.1269 25.2003 43.1269 25.6575V28.6158C42.8597 28.5423 42.5942 28.4841 42.342 28.4389V26.0584C42.342 25.7761 42.118 25.5541 41.8376 25.5541L41.8523 25.5693Z" fill="#584BD4"/>
<path d="M24.8757 49.4981C24.8757 49.4981 23.0216 49.4097 22.711 49.7051C22.711 49.7051 20.8419 50.3412 19.2119 49.5583C19.2119 49.5583 20.4862 49.7653 22.1031 49.3796C22.1031 49.3796 23.1102 49.0258 24.8908 49.4981H24.8757Z" fill="#1F1863"/>
<path d="M51.3259 34.1766C47.7966 40.5803 44.9355 39.9895 42.1779 45.6969C42.1779 45.6969 41.1107 44.3514 40.162 43.6269C40.162 43.6269 39.3018 42.7105 39.0346 41.6905C39.0346 41.6905 38.8577 43.036 39.6877 43.9525C40.9037 45.3281 41.6736 46.6152 41.8072 47.4733C41.8374 47.6351 41.8223 47.7838 41.8072 47.9155H41.0958C41.1541 47.9155 41.2144 47.9155 41.2745 47.9305C44.3277 48.3445 47.1887 48.4048 47.1887 48.4048C44.8773 49.069 42.2815 48.9373 39.8346 48.5816C37.6266 48.2711 35.5354 47.7969 33.8903 47.605C32.0814 47.398 30.2574 47.8721 28.953 48.3445C27.7822 48.7886 26.1503 49.2477 26.1503 49.2477C26.4327 48.9072 27.2477 48.5082 27.5733 48.2561C27.9291 48.0491 28.2999 47.8722 28.6708 47.7235L15.12 47.5316C17.55 48.2109 20.0121 48.7585 20.0121 48.7585C16.6164 48.4931 11.3986 47.4732 11.3986 47.4732H11.3836C6.74187 46.4664 5.20022 46.2293 3.59839 46.7337C2.53112 47.0573 2.04172 47.4431 1.95327 47.5165C2.23563 47.0874 2.60455 46.7337 3.03555 46.4514C2.38238 45.772 0.737262 43.8338 0.767407 41.6151L10.5084 38.0228C10.5084 38.0228 12.1102 37.7123 12.6128 36.3518L13.8288 33.9845C13.8288 33.9845 14.1563 32.846 15.8316 32.4471C17.9811 31.9447 26.877 29.519 38.6941 28.8829C39.8348 28.8227 40.9773 28.8829 42.0898 29.0749C44.2695 29.4587 47.5598 30.7911 50.7635 32.2401C51.4901 32.5788 51.7423 33.467 51.3565 34.1765L51.3259 34.1766Z" fill="#1F1863"/>
<path d="M19.9968 32.7427L17.5498 33.3054L17.4764 34.265L19.8631 33.7042L19.9817 32.7427H19.9968Z" fill="#F8F8F8"/>
<path d="M23.3925 32.0032L20.9455 32.5659L20.8269 33.5405L23.2739 32.9798L23.4076 32.0182L23.3925 32.0032Z" fill="#F8F8F8"/>
<path d="M67.3538 12.0675C67.4875 14.3012 60.9634 16.4163 60.9634 16.4163C60.9634 16.4163 53.5941 18.9003 47.5896 20.6297L47.0268 20.7633V20.7934C44.7135 21.4445 42.6373 21.962 41.3478 22.1539C36.6327 22.8483 32.8661 22.2273 32.4953 22.1972C32.1245 22.1689 32.0661 22.0353 32.0661 22.0353L31.9475 21.6646C31.9024 21.4878 32.1847 21.4576 32.1847 21.4576L26.3873 20.3041L27.3962 20.0087L33.1937 20.483L31.7104 16.2677L32.6008 16.0306L36.9583 19.3294L42.5487 17.5699L41.4212 16.8002L30.4059 12.5117L33.267 11.2979L50.6143 14.4781C50.6143 14.4781 62.3863 10.8839 62.8022 10.8557C63.7659 10.6919 64.5961 11.121 64.5961 11.121C64.4173 11.0909 63.6625 11.1944 63.6625 11.1944C63.0977 11.313 63.2766 11.6837 63.2766 11.6837C65.2625 11.1362 66.6573 11.4316 67.0563 11.5802C67.4723 11.742 67.3537 12.0525 67.3537 12.0525V12.0675H67.3538Z" fill="#1F1863"/>
<path d="M54.3358 14.3594C54.3358 14.2559 54.2624 14.2126 54.1589 14.2409L54.0253 14.286C53.9217 14.3162 53.8465 14.4196 53.8465 14.5232V14.8036C53.8465 14.9071 53.9218 14.9504 54.0102 14.9221L54.1438 14.877C54.2473 14.8468 54.3208 14.7434 54.3208 14.6398V14.3594H54.3358Z" fill="white"/>
<path d="M55.5819 13.9454C55.5819 13.8419 55.5066 13.7967 55.4031 13.8269L55.2695 13.872C55.166 13.9003 55.0926 14.0037 55.0926 14.1092V14.3896C55.0926 14.4931 55.166 14.5364 55.2545 14.5081L55.3881 14.463C55.4917 14.4328 55.5669 14.3294 55.5669 14.2258V13.9454H55.5819Z" fill="white"/>
<path d="M56.8261 13.5315C56.8261 13.428 56.7527 13.3828 56.6492 13.4129L56.5155 13.4581C56.412 13.4863 56.3368 13.5898 56.3368 13.6933V13.9756C56.3368 14.0792 56.4121 14.1224 56.5005 14.0942L56.6341 14.049C56.7377 14.0189 56.8129 13.9154 56.8129 13.8119V13.5315H56.8261Z" fill="white"/>
<path d="M58.0722 13.1175C58.0722 13.014 57.9988 12.9688 57.8953 12.9989L57.7617 13.0441C57.6581 13.0723 57.5829 13.1758 57.5829 13.2793V13.5616C57.5829 13.6652 57.6582 13.7084 57.7467 13.6802L57.8803 13.635C57.9838 13.6049 58.0572 13.5014 58.0572 13.3979V13.1175H58.0722Z" fill="white"/>
<path d="M59.3183 12.7036C59.3183 12.6 59.243 12.5549 59.1395 12.585L59.0059 12.6302C58.9023 12.6584 58.829 12.7618 58.829 12.8654V13.1477C58.829 13.2512 58.9024 13.2945 58.9908 13.2662L59.1245 13.2211C59.228 13.1909 59.3032 13.0875 59.3032 12.984V12.7036H59.3183Z" fill="white"/>
<path d="M60.5625 12.2894C60.5625 12.1859 60.489 12.1407 60.3856 12.1709L60.2519 12.216C60.1484 12.2443 60.0732 12.3477 60.0732 12.4513V12.7335C60.0732 12.8371 60.1485 12.8804 60.2369 12.8502L60.3705 12.807C60.4741 12.7768 60.5493 12.6734 60.5493 12.5698V12.2894H60.5625Z" fill="white"/>
<path d="M46.4339 23.7646L48.3313 23.3506L52.734 19.4177L47.5896 20.6296C47.3976 20.6897 47.2038 20.7331 47.0268 20.7933L46.4339 23.7796V23.7646Z" fill="#1F1863"/>
<path d="M82.8082 8.58846H86.1292V27.4885H82.8082V8.58846ZM91.1886 8.58846H94.2666L104.392 21.6565V8.58846H107.659V27.4885H104.878L94.4556 14.0425V27.4885H91.1886V8.58846ZM119.567 24.4645C120.557 24.4645 121.457 24.3115 122.267 24.0055C123.077 23.6815 123.761 23.2405 124.319 22.6825C124.895 22.1065 125.336 21.4315 125.642 20.6575C125.966 19.8655 126.128 19.0105 126.128 18.0925V18.0385C126.128 17.1205 125.966 16.2655 125.642 15.4735C125.336 14.6815 124.895 14.0065 124.319 13.4485C123.761 12.8725 123.077 12.4225 122.267 12.0985C121.457 11.7745 120.557 11.6125 119.567 11.6125H115.841V24.4645H119.567ZM112.52 8.58846H119.567C121.043 8.58846 122.393 8.83146 123.617 9.31746C124.859 9.78546 125.921 10.4425 126.803 11.2885C127.703 12.1345 128.396 13.1335 128.882 14.2855C129.368 15.4195 129.611 16.6525 129.611 17.9845V18.0385C129.611 19.3705 129.368 20.6125 128.882 21.7645C128.396 22.9165 127.703 23.9155 126.803 24.7615C125.921 25.6075 124.859 26.2735 123.617 26.7595C122.393 27.2455 121.043 27.4885 119.567 27.4885H112.52V8.58846ZM133.64 8.58846H136.961V24.4645H146.897V27.4885H133.64V8.58846ZM159.429 24.7615C160.365 24.7615 161.22 24.5905 161.994 24.2485C162.786 23.8885 163.461 23.4115 164.019 22.8175C164.577 22.2055 165.009 21.4945 165.315 20.6845C165.639 19.8745 165.801 19.0105 165.801 18.0925V18.0385C165.801 17.1205 165.639 16.2565 165.315 15.4465C165.009 14.6185 164.568 13.9075 163.992 13.3135C163.434 12.7015 162.759 12.2155 161.967 11.8555C161.175 11.4955 160.311 11.3155 159.375 11.3155C158.439 11.3155 157.575 11.4955 156.783 11.8555C156.009 12.1975 155.343 12.6745 154.785 13.2865C154.227 13.8805 153.786 14.5825 153.462 15.3925C153.156 16.2025 153.003 17.0665 153.003 17.9845V18.0385C153.003 18.9565 153.156 19.8295 153.462 20.6575C153.786 21.4675 154.227 22.1785 154.785 22.7905C155.361 23.3845 156.045 23.8615 156.837 24.2215C157.629 24.5815 158.493 24.7615 159.429 24.7615ZM159.375 27.8125C157.917 27.8125 156.585 27.5605 155.379 27.0565C154.173 26.5345 153.138 25.8325 152.274 24.9505C151.41 24.0685 150.735 23.0425 150.249 21.8725C149.763 20.6845 149.52 19.4245 149.52 18.0925V18.0385C149.52 16.7065 149.763 15.4555 150.249 14.2855C150.735 13.0975 151.419 12.0625 152.301 11.1805C153.183 10.2805 154.227 9.56946 155.433 9.04746C156.639 8.52546 157.971 8.26446 159.429 8.26446C160.887 8.26446 162.219 8.52546 163.425 9.04746C164.631 9.55146 165.666 10.2445 166.53 11.1265C167.394 12.0085 168.069 13.0435 168.555 14.2315C169.041 15.4015 169.284 16.6525 169.284 17.9845V18.0385C169.284 19.3705 169.041 20.6305 168.555 21.8185C168.069 22.9885 167.385 24.0235 166.503 24.9235C165.621 25.8055 164.577 26.5075 163.371 27.0295C162.165 27.5515 160.833 27.8125 159.375 27.8125ZM182.26 27.8125C180.784 27.8125 179.443 27.5695 178.237 27.0835C177.031 26.5795 175.996 25.8955 175.132 25.0315C174.286 24.1495 173.629 23.1235 173.161 21.9535C172.693 20.7655 172.459 19.4785 172.459 18.0925V18.0385C172.459 16.7245 172.693 15.4735 173.161 14.2855C173.647 13.0975 174.322 12.0625 175.186 11.1805C176.05 10.2805 177.076 9.56946 178.264 9.04746C179.47 8.52546 180.784 8.26446 182.206 8.26446C183.034 8.26446 183.781 8.32746 184.447 8.45346C185.131 8.56146 185.761 8.72346 186.337 8.93946C186.913 9.15546 187.453 9.42546 187.957 9.74946C188.479 10.0555 188.983 10.4155 189.469 10.8295L187.363 13.3405C187.003 13.0345 186.634 12.7555 186.256 12.5035C185.878 12.2515 185.482 12.0445 185.068 11.8825C184.654 11.7025 184.195 11.5675 183.691 11.4775C183.205 11.3695 182.665 11.3155 182.071 11.3155C181.207 11.3155 180.397 11.4955 179.641 11.8555C178.903 12.2155 178.255 12.7015 177.697 13.3135C177.157 13.9075 176.725 14.6095 176.401 15.4195C176.095 16.2295 175.942 17.0845 175.942 17.9845V18.0385C175.942 19.0105 176.095 19.9105 176.401 20.7385C176.707 21.5665 177.139 22.2775 177.697 22.8715C178.273 23.4655 178.948 23.9335 179.722 24.2755C180.514 24.6175 181.396 24.7885 182.368 24.7885C183.268 24.7885 184.105 24.6625 184.879 24.4105C185.671 24.1405 186.355 23.7895 186.931 23.3575V19.8205H182.098V16.9315H190.144V24.8695C189.676 25.2655 189.154 25.6435 188.578 26.0035C188.02 26.3635 187.408 26.6785 186.742 26.9485C186.094 27.2185 185.392 27.4255 184.636 27.5695C183.88 27.7315 183.088 27.8125 182.26 27.8125Z" fill="#1F1863"/>
<path d="M101.455 40.5115V35.4715H102.085L104.713 39.409V35.4715H105.343V40.5115H104.713L102.085 36.5705V40.5115H101.455ZM112.482 40.5115V35.4715H115.667V36.063H113.105V37.6415H115.247V38.233H113.105V39.92H115.667V40.5115H112.482ZM123.967 40.5115V36.063H122.248V35.4715H126.308V36.063H124.59V40.5115H123.967ZM134.1 40.5115L132.64 35.4715H133.291L134.411 39.458L135.528 35.475L136.182 35.4715L137.302 39.458L138.419 35.4715H139.073L137.614 40.5115H136.991L135.857 36.56L134.723 40.5115H134.1ZM147.765 40.6165C147.264 40.6165 146.838 40.5056 146.488 40.284C146.138 40.0623 145.871 39.7543 145.686 39.36C145.504 38.9656 145.413 38.5095 145.413 37.9915C145.413 37.4735 145.504 37.0173 145.686 36.623C145.871 36.2286 146.138 35.9206 146.488 35.699C146.838 35.4773 147.264 35.3665 147.765 35.3665C148.269 35.3665 148.696 35.4773 149.046 35.699C149.396 35.9206 149.662 36.2286 149.844 36.623C150.026 37.0173 150.117 37.4735 150.117 37.9915C150.117 38.5095 150.026 38.9656 149.844 39.36C149.662 39.7543 149.396 40.0623 149.046 40.284C148.696 40.5056 148.269 40.6165 147.765 40.6165ZM147.765 40.0215C148.141 40.0238 148.454 39.9398 148.703 39.7695C148.955 39.5968 149.143 39.3576 149.267 39.052C149.393 38.7463 149.456 38.3928 149.456 37.9915C149.456 37.5878 149.393 37.2343 149.267 36.931C149.143 36.6276 148.955 36.3908 148.703 36.2205C148.454 36.0501 148.141 35.9638 147.765 35.9615C147.39 35.9591 147.077 36.0431 146.827 36.2135C146.58 36.3838 146.393 36.6218 146.267 36.9275C146.141 37.2331 146.077 37.5878 146.075 37.9915C146.072 38.3928 146.134 38.7451 146.26 39.0485C146.386 39.3518 146.574 39.5898 146.824 39.7625C147.076 39.9328 147.39 40.0191 147.765 40.0215ZM156.98 40.5115V35.4715H158.972C159.021 35.4715 159.079 35.4738 159.147 35.4785C159.214 35.4808 159.28 35.4878 159.343 35.4995C159.616 35.5415 159.844 35.6348 160.029 35.7795C160.215 35.9241 160.355 36.1073 160.449 36.329C160.542 36.5483 160.589 36.7921 160.589 37.0605C160.589 37.4501 160.487 37.7885 160.284 38.0755C160.081 38.3601 159.784 38.5386 159.392 38.611L159.154 38.6495H157.603V40.5115H156.98ZM159.98 40.5115L158.986 38.4605L159.602 38.2715L160.694 40.5115H159.98ZM157.603 38.058H158.951C158.995 38.058 159.045 38.0556 159.101 38.051C159.16 38.0463 159.214 38.0381 159.266 38.0265C159.427 37.9891 159.557 37.9215 159.658 37.8235C159.76 37.7231 159.835 37.6065 159.882 37.4735C159.928 37.3381 159.952 37.2005 159.952 37.0605C159.952 36.9205 159.928 36.784 159.882 36.651C159.835 36.5156 159.76 36.3978 159.658 36.2975C159.557 36.1971 159.427 36.1295 159.266 36.0945C159.214 36.0805 159.16 36.0723 159.101 36.07C159.045 36.0653 158.995 36.063 158.951 36.063H157.603V38.058ZM167.625 40.5115V35.4715H168.248V37.8375L170.453 35.4715H171.237L168.948 37.918L171.415 40.5115H170.61L168.248 38.0475V40.5115H167.625Z" fill="#584BD4"/>
</svg>
